# xmcd
#
# Track frame offsets:
#	150
#	12600
#	24590
#	34820
#	49867
#	60227
#	75105
#	93840
#	112712
#	127750
#	146130
#	166155
#	180785
#	195982
#	206912
#	216877
#	228032
#	239637
#	249864
#	258362
#
# Disc length: 3604 seconds
#
# Revision: 1
# Processed by: cddbd v1.5.2PL0 Copyright (c) Steve Scherf et al.
# Submitted via: audiograbber 1.83.01
#
DISCID=f30e1214
DTITLE=Atkins Chet - Chet Picks On The Grammys - Pickin' On Country
DYEAR=2002
DGENRE=Country
TTITLE0=Tears
TTITLE1=Nut Sundae
TTITLE2=Snowbird
TTITLE3=I'll See You In My Dreams
TTITLE4=The Etertainer
TTITLE5=Caravan
TTITLE6=Ready For The Times To Get Better
TTITLE7=Cosmic Square Dance
TTITLE8=So Soft, Your Goodbye
TTITLE9=Poor Boy Blues
TTITLE10=Sneakin' Around
TTITLE11=Young Thing
TTITLE12=Jam Man
TTITLE13=Walk Don't Run
TTITLE14=Trambone
TTITLE15=Galloping On The Guitar
TTITLE16=Music To Watch Girls By
TTITLE17=Main Street Breakdown
TTITLE18=Oh! By Jingo! Oh! By Gee!  - You're The Only Girl For Me
TTITLE19=Knee Action
EXTD=
EXTT0=
EXTT1=
EXTT2=
EXTT3=
EXTT4=
EXTT5=
EXTT6=
EXTT7=
EXTT8=
EXTT9=
EXTT10=
EXTT11=
EXTT12=
EXTT13=
EXTT14=
EXTT15=
EXTT16=
EXTT17=
EXTT18=
EXTT19=
PLAYORDER=
